<svg id="visual" viewBox="0 0 500 500" width="500" height="500" xmlns="http://www.w3.org/2000/svg" xmlns:xlink="http://www.w3.org/1999/xlink" version="1.1"><g transform="translate(249.3796773063259 221.81353726299483)"><path d="M122.2 -140.1C155.7 -117.5 178.3 -76.5 180.6 -35.9C183 4.7 165.1 44.9 144.3 85.7C123.6 126.5 99.9 168 61.1 193C22.3 218 -31.6 226.5 -67.2 204.8C-102.9 183.1 -120.3 131.3 -141.8 85.8C-163.4 40.4 -189 1.3 -176.1 -24C-163.2 -49.2 -111.7 -60.5 -76 -82.7C-40.2 -104.9 -20.1 -137.9 12.1 -152.4C44.4 -166.9 88.7 -162.7 122.2 -140.1" fill="#FFD95A"></path></g></svg>