<svg id="visual" viewBox="0 0 600 900" width="600" height="900" xmlns="http://www.w3.org/2000/svg" xmlns:xlink="http://www.w3.org/1999/xlink" version="1.1"><g transform="translate(295.57470165659186 439.88866054165214)"><path d="M141.9 -182.9C175.4 -141 188.1 -88.2 202 -32.3C215.9 23.7 230.9 82.9 213.1 131.7C195.2 180.5 144.5 219 86.4 242.3C28.3 265.6 -37.2 273.8 -77.3 245C-117.5 216.3 -132.4 150.6 -158.6 96C-184.8 41.4 -222.4 -2.2 -209.9 -30.8C-197.4 -59.3 -134.9 -72.7 -91.5 -112.9C-48.2 -153.1 -24.1 -220.1 15.1 -238C54.2 -255.9 108.4 -224.9 141.9 -182.9" fill="#FFD95A"></path></g></svg>