<svg width="76" height="25" viewBox="0 0 76 25" fill="none" xmlns="http://www.w3.org/2000/svg">
<rect x="0.5" y="0.466667" width="75" height="24" rx="5" fill="white"/>
<path d="M10.6888 12.2357H13.9348C13.9348 12.2357 15.7588 12.2649 15.7588 10.4732V7.50992C15.7588 7.50992 16.0355 5.71667 12.452 5.71667C9.0215 5.71667 9.23525 7.20392 9.23525 7.20392L9.23975 8.74517H12.512V9.20792H7.94C7.94 9.20792 5.74475 8.95892 5.74475 12.4194C5.74475 15.8799 7.661 15.7569 7.661 15.7569H8.804V14.1512C8.804 14.1512 8.74175 12.2357 10.6888 12.2357ZM10.6468 7.93067C10.4906 7.93067 10.3409 7.86864 10.2304 7.75823C10.12 7.64781 10.058 7.49806 10.058 7.34192C10.058 7.18577 10.12 7.03602 10.2304 6.92561C10.3409 6.8152 10.4906 6.75317 10.6468 6.75317C10.8029 6.75317 10.9526 6.8152 11.0631 6.92561C11.1735 7.03602 11.2355 7.18577 11.2355 7.34192C11.2355 7.49806 11.1735 7.64781 11.0631 7.75823C10.9526 7.86864 10.8029 7.93067 10.6468 7.93067Z" fill="#064EA4"/>
<path d="M17.339 9.11567H16.196V10.7214C16.196 10.7214 16.2582 12.6369 14.3112 12.6369H11.0652C11.0652 12.6369 9.24122 12.6069 9.24122 14.3994V17.3627C9.24122 17.3627 8.96447 19.1559 12.548 19.1559C15.9777 19.1559 15.764 17.6687 15.764 17.6687L15.7595 16.1282H12.4872V15.6654H17.06C17.06 15.6654 19.2552 15.9144 19.2552 12.4539C19.2552 8.99342 17.339 9.11567 17.339 9.11567ZM14.3532 16.9427C14.5094 16.9427 14.6591 17.0047 14.7695 17.1151C14.8799 17.2255 14.942 17.3753 14.942 17.5314C14.942 17.6876 14.8799 17.8373 14.7695 17.9477C14.6591 18.0581 14.5094 18.1202 14.3532 18.1202C14.1971 18.1202 14.0473 18.0581 13.9369 17.9477C13.8265 17.8373 13.7645 17.6876 13.7645 17.5314C13.7645 17.3753 13.8265 17.2255 13.9369 17.1151C14.0473 17.0047 14.1971 16.9427 14.3532 16.9427Z" fill="#064EA4"/>
<path d="M29.922 12.7587H32.526C33.282 12.768 33.8327 12.614 34.178 12.2967C34.5327 11.9793 34.71 11.522 34.71 10.9247C34.71 10.3273 34.5327 9.87467 34.178 9.56667C33.8327 9.24933 33.282 9.09067 32.526 9.09067H29.922V12.7587ZM28.592 7.97067H32.974C33.982 7.97067 34.7427 8.232 35.256 8.75467C35.7787 9.268 36.04 9.99133 36.04 10.9247C36.04 11.858 35.7787 12.586 35.256 13.1087C34.7427 13.6313 33.982 13.888 32.974 13.8787H29.922V17.9667H28.592V7.97067ZM40.3161 18.9327C40.1761 19.2873 40.0361 19.586 39.8961 19.8287C39.7655 20.0713 39.6161 20.2673 39.4481 20.4167C39.2895 20.5753 39.1075 20.6873 38.9021 20.7527C38.7061 20.8273 38.4775 20.8647 38.2161 20.8647C38.0761 20.8647 37.9361 20.8553 37.7961 20.8367C37.6561 20.818 37.5208 20.7853 37.3901 20.7387V19.6467C37.4928 19.6933 37.6095 19.7307 37.7401 19.7587C37.8801 19.796 37.9968 19.8147 38.0901 19.8147C38.3328 19.8147 38.5335 19.754 38.6921 19.6327C38.8601 19.5207 38.9861 19.3573 39.0701 19.1427L39.5601 17.9247L36.6901 10.7287H38.0341L40.1481 16.6507H40.1761L42.2061 10.7287H43.4661L40.3161 18.9327ZM46.1261 10.7287H47.5681V11.7787H46.1261V16.2727C46.1261 16.4127 46.1355 16.5247 46.1541 16.6087C46.1821 16.6927 46.2288 16.758 46.2941 16.8047C46.3595 16.8513 46.4481 16.884 46.5601 16.9027C46.6815 16.912 46.8355 16.9167 47.0221 16.9167H47.5681V17.9667H46.6581C46.3501 17.9667 46.0841 17.948 45.8601 17.9107C45.6455 17.864 45.4681 17.7847 45.3281 17.6727C45.1975 17.5607 45.0995 17.402 45.0341 17.1967C44.9688 16.9913 44.9361 16.7207 44.9361 16.3847V11.7787H43.7041V10.7287H44.9361V8.55867H46.1261V10.7287ZM48.8901 7.97067H50.0801V11.7927H50.1081C50.2015 11.5687 50.3321 11.382 50.5001 11.2327C50.6681 11.074 50.8548 10.948 51.0601 10.8547C51.2748 10.752 51.4941 10.6773 51.7181 10.6307C51.9515 10.584 52.1755 10.5607 52.3901 10.5607C52.8661 10.5607 53.2628 10.626 53.5801 10.7567C53.8975 10.8873 54.1541 11.0693 54.3501 11.3027C54.5461 11.536 54.6815 11.816 54.7561 12.1427C54.8401 12.46 54.8821 12.8147 54.8821 13.2067V17.9667H53.6921V13.0667C53.6921 12.6187 53.5615 12.264 53.3001 12.0027C53.0388 11.7413 52.6795 11.6107 52.2221 11.6107C51.8581 11.6107 51.5408 11.6667 51.2701 11.7787C51.0088 11.8907 50.7895 12.0493 50.6121 12.2547C50.4348 12.46 50.2995 12.7027 50.2061 12.9827C50.1221 13.2533 50.0801 13.552 50.0801 13.8787V17.9667H48.8901V7.97067ZM57.5374 14.3547C57.5374 14.7933 57.5934 15.1853 57.7054 15.5307C57.8268 15.8667 57.9901 16.1513 58.1954 16.3847C58.4008 16.6087 58.6388 16.7813 58.9094 16.9027C59.1894 17.024 59.4834 17.0847 59.7914 17.0847C60.0994 17.0847 60.3888 17.024 60.6594 16.9027C60.9394 16.7813 61.1821 16.6087 61.3874 16.3847C61.5928 16.1513 61.7514 15.8667 61.8634 15.5307C61.9848 15.1853 62.0454 14.7933 62.0454 14.3547C62.0454 13.916 61.9848 13.5287 61.8634 13.1927C61.7514 12.8473 61.5928 12.558 61.3874 12.3247C61.1821 12.0913 60.9394 11.914 60.6594 11.7927C60.3888 11.6713 60.0994 11.6107 59.7914 11.6107C59.4834 11.6107 59.1894 11.6713 58.9094 11.7927C58.6388 11.914 58.4008 12.0913 58.1954 12.3247C57.9901 12.558 57.8268 12.8473 57.7054 13.1927C57.5934 13.5287 57.5374 13.916 57.5374 14.3547ZM56.2774 14.3547C56.2774 13.8227 56.3521 13.328 56.5014 12.8707C56.6508 12.404 56.8748 12.0027 57.1734 11.6667C57.4721 11.3213 57.8408 11.0507 58.2794 10.8547C58.7181 10.6587 59.2221 10.5607 59.7914 10.5607C60.3701 10.5607 60.8741 10.6587 61.3034 10.8547C61.7421 11.0507 62.1108 11.3213 62.4094 11.6667C62.7081 12.0027 62.9321 12.404 63.0814 12.8707C63.2308 13.328 63.3054 13.8227 63.3054 14.3547C63.3054 14.8867 63.2308 15.3813 63.0814 15.8387C62.9321 16.296 62.7081 16.6973 62.4094 17.0427C62.1108 17.3787 61.7421 17.6447 61.3034 17.8407C60.8741 18.0273 60.3701 18.1207 59.7914 18.1207C59.2221 18.1207 58.7181 18.0273 58.2794 17.8407C57.8408 17.6447 57.4721 17.3787 57.1734 17.0427C56.8748 16.6973 56.6508 16.296 56.5014 15.8387C56.3521 15.3813 56.2774 14.8867 56.2774 14.3547ZM64.7085 10.7287H65.8285V11.8767H65.8565C66.3512 10.9993 67.1352 10.5607 68.2085 10.5607C68.6845 10.5607 69.0812 10.626 69.3985 10.7567C69.7158 10.8873 69.9725 11.0693 70.1685 11.3027C70.3645 11.536 70.4998 11.816 70.5745 12.1427C70.6585 12.46 70.7005 12.8147 70.7005 13.2067V17.9667H69.5105V13.0667C69.5105 12.6187 69.3798 12.264 69.1185 12.0027C68.8572 11.7413 68.4978 11.6107 68.0405 11.6107C67.6765 11.6107 67.3592 11.6667 67.0885 11.7787C66.8272 11.8907 66.6078 12.0493 66.4305 12.2547C66.2532 12.46 66.1178 12.7027 66.0245 12.9827C65.9405 13.2533 65.8985 13.552 65.8985 13.8787V17.9667H64.7085V10.7287Z" fill="#064EA4"/>
</svg>
