<svg id="visual" viewBox="0 0 1920 300" width="1920" height="300" xmlns="http://www.w3.org/2000/svg" xmlns:xlink="http://www.w3.org/1999/xlink" version="1.1"><path d="M0 80L21.3 100.5C42.7 121 85.3 162 128 181.2C170.7 200.3 213.3 197.7 256 184.3C298.7 171 341.3 147 384 145.5C426.7 144 469.3 165 512 162C554.7 159 597.3 132 640 136.2C682.7 140.3 725.3 175.7 768 187.5C810.7 199.3 853.3 187.7 896 177.2C938.7 166.7 981.3 157.3 1024 140.5C1066.7 123.7 1109.3 99.3 1152 101.5C1194.7 103.7 1237.3 132.3 1280 150.2C1322.7 168 1365.3 175 1408 174.8C1450.7 174.7 1493.3 167.3 1536 148.3C1578.7 129.3 1621.3 98.7 1664 102.3C1706.7 106 1749.3 144 1792 149.8C1834.7 155.7 1877.3 129.3 1898.7 116.2L1920 103L1920 301L1898.7 301C1877.3 301 1834.7 301 1792 301C1749.3 301 1706.7 301 1664 301C1621.3 301 1578.7 301 1536 301C1493.3 301 1450.7 301 1408 301C1365.3 301 1322.7 301 1280 301C1237.3 301 1194.7 301 1152 301C1109.3 301 1066.7 301 1024 301C981.3 301 938.7 301 896 301C853.3 301 810.7 301 768 301C725.3 301 682.7 301 640 301C597.3 301 554.7 301 512 301C469.3 301 426.7 301 384 301C341.3 301 298.7 301 256 301C213.3 301 170.7 301 128 301C85.3 301 42.7 301 21.3 301L0 301Z" fill="#064EA4" stroke-linecap="round" stroke-linejoin="miter"></path></svg>